<?xml version="1.0" encoding="UTF-8" standalone="no"?>
<!-- Created with Inkscape (http://www.inkscape.org/) -->

<svg
   width="49.999996mm"
   height="49.999996mm"
   viewBox="0 0 49.999996 49.999996"
   version="1.1"
   id="svg1"
   xmlns="http://www.w3.org/2000/svg"
   xmlns:svg="http://www.w3.org/2000/svg">
  <defs
     id="defs1" />
  <g
     id="layer1"
     transform="translate(-140.37487,-61.76964)">
    <g
       id="g85">
      <rect
         style="fill:none;stroke:#000000;stroke-width:1.97932;stroke-linecap:round;stroke-linejoin:round;stroke-dasharray:none"
         id="rect10"
         width="48.020676"
         height="48.020676"
         x="141.36453"
         y="62.7593" />
      <path
         style="fill:none;stroke:#000000;stroke-width:0.989661;stroke-linecap:round;stroke-linejoin:round;stroke-dasharray:none"
         d="M 165.37488,62.759299 V 110.77997"
         id="path10" />
      <path
         style="fill:none;stroke:#000000;stroke-width:0.989661;stroke-linecap:round;stroke-linejoin:round;stroke-dasharray:none"
         d="m 141.36454,86.769636 h 48.02067"
         id="path11" />
      <path
         style="fill:none;stroke:#000000;stroke-width:0.989661;stroke-linecap:round;stroke-linejoin:round;stroke-dasharray:none"
         d="M 153.37858,62.759299 V 110.77997"
         id="path12" />
      <path
         style="fill:none;stroke:#000000;stroke-width:0.989661;stroke-linecap:round;stroke-linejoin:round;stroke-dasharray:none"
         d="M 177.05848,62.759299 V 110.77997"
         id="path13" />
      <path
         style="fill:none;stroke:#000000;stroke-width:0.989661;stroke-linecap:round;stroke-linejoin:round;stroke-dasharray:none"
         d="m 141.36454,75.059043 h 48.02067"
         id="path14" />
      <path
         style="fill:none;stroke:#000000;stroke-width:0.989661;stroke-linecap:round;stroke-linejoin:round;stroke-dasharray:none"
         d="m 141.36454,98.761014 h 48.02067"
         id="path15" />
      <path
         style="fill:#ff0000;stroke:#ffffff;stroke-width:0.47273;stroke-linecap:round;stroke-linejoin:round;stroke-dasharray:none"
         d="m 165.92669,69.180455 v -5.315746 h 5.31574 5.31575 v 5.315746 5.315746 h -5.31575 -5.31574 z"
         id="path64" />
      <path
         style="fill:#ff0000;stroke:#ffffff;stroke-width:0.47273;stroke-linecap:round;stroke-linejoin:round;stroke-dasharray:none"
         d="m 153.91936,69.180455 v -5.315746 h 5.44082 5.44082 v 5.315746 5.315746 h -5.44082 -5.44082 z"
         id="path65" />
      <path
         style="fill:#ff6600;stroke:#ffffff;stroke-width:0.47273;stroke-linecap:round;stroke-linejoin:round;stroke-dasharray:none"
         d="m 142.41233,69.180455 v -5.315746 h 5.19067 5.19067 v 5.315746 5.315746 h -5.19067 -5.19067 z"
         id="path66" />
      <path
         style="fill:#ff6600;stroke:#ffffff;stroke-width:0.47273;stroke-linecap:round;stroke-linejoin:round;stroke-dasharray:none"
         d="m 153.91936,80.937631 v -5.315744 h 5.44082 5.44082 v 5.315744 5.315746 h -5.44082 -5.44082 z"
         id="path67" />
      <path
         style="fill:#ff6600;stroke:#ffffff;stroke-width:0.47273;stroke-linecap:round;stroke-linejoin:round;stroke-dasharray:none"
         d="m 153.91936,92.819886 v -5.440823 h 5.44082 5.44082 v 5.440823 5.440823 h -5.44082 -5.44082 z"
         id="path68" />
      <path
         style="fill:#ff2a2a;stroke:#ffffff;stroke-width:0.47273;stroke-linecap:round;stroke-linejoin:round;stroke-dasharray:none"
         d="m 177.55879,80.937631 v -5.315744 h 5.37828 5.37829 v 5.315744 5.315746 h -5.37829 -5.37828 z"
         id="path69" />
      <path
         style="fill:#ff7f2a;stroke:#ffffff;stroke-width:0.47273;stroke-linecap:round;stroke-linejoin:round;stroke-dasharray:none"
         d="m 177.55879,69.180455 v -5.315746 h 5.37828 5.37829 v 5.315746 5.315746 h -5.37829 -5.37828 z"
         id="path70" />
      <path
         style="fill:#ff7f2a;stroke:#ffffff;stroke-width:0.47273;stroke-linecap:round;stroke-linejoin:round;stroke-dasharray:none"
         d="m 165.92669,80.937631 v -5.315744 h 5.31574 5.31575 v 5.315744 5.315746 h -5.31575 -5.31574 z"
         id="path71" />
      <path
         style="fill:#0000ff;stroke:#ffffff;stroke-width:0.47273;stroke-linecap:round;stroke-linejoin:round;stroke-dasharray:none"
         d="m 142.41233,80.937631 v -5.315744 h 5.19067 5.19067 v 5.315744 5.315746 h -5.19067 -5.19067 z"
         id="path72" />
      <path
         style="fill:#0000ff;stroke:#ffffff;stroke-width:0.47273;stroke-linecap:round;stroke-linejoin:round;stroke-dasharray:none"
         d="m 142.41233,92.819886 v -5.440823 h 5.19067 5.19067 v 5.440823 5.440823 h -5.19067 -5.19067 z"
         id="path73" />
      <path
         style="fill:#0000ff;stroke:#ffffff;stroke-width:0.47273;stroke-linecap:round;stroke-linejoin:round;stroke-dasharray:none"
         d="m 142.41233,104.51453 v -5.253211 h 5.19067 5.19067 v 5.253211 5.2532 h -5.19067 -5.19067 z"
         id="path74" />
      <path
         style="fill:#0000ff;stroke:#ffffff;stroke-width:0.47273;stroke-linecap:round;stroke-linejoin:round;stroke-dasharray:none"
         d="m 165.92669,104.51453 v -5.253211 h 5.31574 5.31575 v 5.253211 5.2532 h -5.31575 -5.31574 z"
         id="path75" />
      <path
         style="fill:#0000ff;stroke:#ffffff;stroke-width:0.47273;stroke-linecap:round;stroke-linejoin:round;stroke-dasharray:none"
         d="m 177.55879,104.51453 v -5.253211 h 5.37828 5.37829 v 5.253211 5.2532 h -5.37829 -5.37828 z"
         id="path76" />
      <path
         style="fill:#0000ff;stroke:#ffffff;stroke-width:0.47273;stroke-linecap:round;stroke-linejoin:round;stroke-dasharray:none"
         d="m 177.55879,92.819886 v -5.440823 h 5.37828 5.37829 v 5.440823 5.440823 h -5.37829 -5.37828 z"
         id="path77" />
      <path
         style="fill:#0000ff;stroke:#ffffff;stroke-width:0.47273;stroke-linecap:round;stroke-linejoin:round;stroke-dasharray:none"
         d="m 165.92669,92.819886 v -5.440823 h 5.31574 5.31575 v 5.440823 5.440823 h -5.31575 -5.31574 z"
         id="path78" />
      <path
         style="fill:#0000ff;stroke:#ffffff;stroke-width:0.47273;stroke-linecap:round;stroke-linejoin:round;stroke-dasharray:none"
         d="m 153.91936,104.51453 v -5.253211 h 5.44082 5.44082 v 5.253211 5.2532 h -5.44082 -5.44082 z"
         id="path79" />
    </g>
  </g>
</svg>
