<?xml version="1.0" encoding="UTF-8" standalone="no"?>
<!-- Created with Inkscape (http://www.inkscape.org/) -->

<svg
   width="49.999996mm"
   height="49.999996mm"
   viewBox="0 0 49.999996 49.999996"
   version="1.1"
   id="svg1"
   xmlns="http://www.w3.org/2000/svg"
   xmlns:svg="http://www.w3.org/2000/svg">
  <defs
     id="defs1" />
  <g
     id="layer1"
     transform="translate(-104.24584,-133.08541)">
    <g
       id="g86">
      <rect
         style="fill:none;stroke:#000000;stroke-width:1.97932;stroke-linecap:round;stroke-linejoin:round;stroke-dasharray:none"
         id="rect10-2"
         width="48.020676"
         height="48.020676"
         x="105.2355"
         y="134.07507" />
      <path
         style="fill:none;stroke:#000000;stroke-width:0.989661;stroke-linecap:round;stroke-linejoin:round;stroke-dasharray:none"
         d="m 129.24584,134.07507 v 48.02068"
         id="path10-8" />
      <path
         style="fill:none;stroke:#000000;stroke-width:0.989661;stroke-linecap:round;stroke-linejoin:round;stroke-dasharray:none"
         d="m 105.2355,158.08541 h 48.02067"
         id="path11-6" />
      <path
         style="fill:none;stroke:#000000;stroke-width:0.989661;stroke-linecap:round;stroke-linejoin:round;stroke-dasharray:none"
         d="m 117.24954,134.07507 v 48.02068"
         id="path12-0" />
      <path
         style="fill:none;stroke:#000000;stroke-width:0.989661;stroke-linecap:round;stroke-linejoin:round;stroke-dasharray:none"
         d="m 140.92944,134.07507 v 48.02068"
         id="path13-2" />
      <path
         style="fill:none;stroke:#000000;stroke-width:0.989661;stroke-linecap:round;stroke-linejoin:round;stroke-dasharray:none"
         d="m 105.2355,146.37482 h 48.02067"
         id="path14-4" />
      <path
         style="fill:none;stroke:#000000;stroke-width:0.989661;stroke-linecap:round;stroke-linejoin:round;stroke-dasharray:none"
         d="m 105.2355,170.07679 h 48.02067"
         id="path15-8" />
      <path
         style="fill:#1a1a1a;stroke:#ffffff;stroke-width:0.47273;stroke-linecap:round;stroke-linejoin:round;stroke-dasharray:none"
         d="m 129.79765,140.49623 v -5.31575 h 5.31574 5.31575 v 5.31575 5.31575 h -5.31575 -5.31574 z"
         id="path64-6" />
      <path
         style="fill:#1a1a1a;stroke:#ffffff;stroke-width:0.47273;stroke-linecap:round;stroke-linejoin:round;stroke-dasharray:none"
         d="m 117.79032,140.49623 v -5.31575 h 5.44082 5.44082 v 5.31575 5.31575 h -5.44082 -5.44082 z"
         id="path65-5" />
      <path
         style="fill:#4d4d4d;stroke:#ffffff;stroke-width:0.47273;stroke-linecap:round;stroke-linejoin:round;stroke-dasharray:none"
         d="m 106.28329,140.49623 v -5.31575 h 5.19067 5.19067 v 5.31575 5.31575 h -5.19067 -5.19067 z"
         id="path66-0" />
      <path
         style="fill:#4d4d4d;stroke:#ffffff;stroke-width:0.47273;stroke-linecap:round;stroke-linejoin:round;stroke-dasharray:none"
         d="m 117.79032,152.25341 v -5.31575 h 5.44082 5.44082 v 5.31575 5.31574 h -5.44082 -5.44082 z"
         id="path67-9" />
      <path
         style="fill:#4d4d4d;stroke:#ffffff;stroke-width:0.47273;stroke-linecap:round;stroke-linejoin:round;stroke-dasharray:none"
         d="m 117.79032,164.13566 v -5.44082 h 5.44082 5.44082 v 5.44082 5.44082 h -5.44082 -5.44082 z"
         id="path68-0" />
      <path
         style="fill:#1a1a1a;stroke:#ffffff;stroke-width:0.47273;stroke-linecap:round;stroke-linejoin:round;stroke-dasharray:none"
         d="m 141.42975,152.25341 v -5.31575 h 5.37828 5.37829 v 5.31575 5.31574 h -5.37829 -5.37828 z"
         id="path69-0" />
      <path
         style="fill:#999999;stroke:#ffffff;stroke-width:0.47273;stroke-linecap:round;stroke-linejoin:round;stroke-dasharray:none"
         d="m 141.42975,140.49623 v -5.31575 h 5.37828 5.37829 v 5.31575 5.31575 h -5.37829 -5.37828 z"
         id="path70-6" />
      <path
         style="fill:#999999;stroke:#ffffff;stroke-width:0.47273;stroke-linecap:round;stroke-linejoin:round;stroke-dasharray:none"
         d="m 129.79765,152.25341 v -5.31575 h 5.31574 5.31575 v 5.31575 5.31574 h -5.31575 -5.31574 z"
         id="path71-1" />
      <path
         style="fill:#e6e6e6;stroke:#ffffff;stroke-width:0.47273;stroke-linecap:round;stroke-linejoin:round;stroke-dasharray:none"
         d="m 106.28329,152.25341 v -5.31575 h 5.19067 5.19067 v 5.31575 5.31574 h -5.19067 -5.19067 z"
         id="path72-3" />
      <path
         style="fill:#cccccc;stroke:#ffffff;stroke-width:0.47273;stroke-linecap:round;stroke-linejoin:round;stroke-dasharray:none"
         d="m 106.28329,164.13566 v -5.44082 h 5.19067 5.19067 v 5.44082 5.44082 h -5.19067 -5.19067 z"
         id="path73-8" />
      <path
         style="fill:#333333;stroke:#ffffff;stroke-width:0.47273;stroke-linecap:round;stroke-linejoin:round;stroke-dasharray:none"
         d="m 106.28329,175.83031 v -5.25322 h 5.19067 5.19067 v 5.25322 5.2532 h -5.19067 -5.19067 z"
         id="path74-9" />
      <path
         style="fill:#cccccc;stroke:#ffffff;stroke-width:0.47273;stroke-linecap:round;stroke-linejoin:round;stroke-dasharray:none"
         d="m 129.79765,175.83031 v -5.25322 h 5.31574 5.31575 v 5.25322 5.2532 h -5.31575 -5.31574 z"
         id="path75-3" />
      <path
         style="fill:#cccccc;stroke:#ffffff;stroke-width:0.47273;stroke-linecap:round;stroke-linejoin:round;stroke-dasharray:none"
         d="m 141.42975,175.83031 v -5.25322 h 5.37828 5.37829 v 5.25322 5.2532 h -5.37829 -5.37828 z"
         id="path76-4" />
      <path
         style="fill:#b3b3b3;stroke:#ffffff;stroke-width:0.47273;stroke-linecap:round;stroke-linejoin:round;stroke-dasharray:none"
         d="m 141.42975,164.13566 v -5.44082 h 5.37828 5.37829 v 5.44082 5.44082 h -5.37829 -5.37828 z"
         id="path77-4" />
      <path
         style="fill:#b3b3b3;stroke:#ffffff;stroke-width:0.47273;stroke-linecap:round;stroke-linejoin:round;stroke-dasharray:none"
         d="m 129.79765,164.13566 v -5.44082 h 5.31574 5.31575 v 5.44082 5.44082 h -5.31575 -5.31574 z"
         id="path78-6" />
      <path
         style="fill:#cccccc;stroke:#ffffff;stroke-width:0.47273;stroke-linecap:round;stroke-linejoin:round;stroke-dasharray:none"
         d="m 117.79032,175.83031 v -5.25322 h 5.44082 5.44082 v 5.25322 5.2532 h -5.44082 -5.44082 z"
         id="path79-0" />
    </g>
  </g>
</svg>
